<?xml version="1.0" standalone="no"?>
<!DOCTYPE svg PUBLIC "-//W3C//DTD SVG 20010904//EN"
 "http://www.w3.org/TR/2001/REC-SVG-20010904/DTD/svg10.dtd">
<svg version="1.0" xmlns="http://www.w3.org/2000/svg"
 width="1614.000000pt" height="384.000000pt" viewBox="0 0 1614.000000 384.000000"
 preserveAspectRatio="xMidYMid meet">

<g transform="translate(0.000000,384.000000) scale(0.100000,-0.100000)"
fill="#000000" stroke="none">
<path d="M4540 3051 c-5 -11 -13 -78 -16 -150 l-7 -131 26 0 c19 0 31 8 42 31
14 25 21 29 43 25 15 -3 56 -10 92 -16 276 -43 503 -197 643 -435 64 -109 81
-182 82 -335 0 -156 -9 -196 -71 -325 -102 -210 -328 -388 -556 -436 -29 -6
-57 -15 -63 -19 -19 -15 -116 1 -128 21 -14 23 -45 25 -54 4 -3 -9 -6 -93 -7
-188 l-1 -172 -111 -6 c-60 -3 -118 -10 -128 -16 -10 -5 -27 -27 -39 -48 -18
-32 -30 -41 -71 -51 -54 -14 -93 -45 -81 -64 6 -9 28 -11 83 -6 41 4 252 7
469 6 329 0 393 2 393 14 0 20 -19 32 -82 50 -44 12 -61 23 -72 44 -33 63 -51
71 -176 74 l-115 3 -5 128 c-3 71 -1 135 3 143 5 9 26 14 63 14 51 0 141 24
309 82 58 20 178 95 239 148 35 31 124 141 157 195 40 65 87 204 100 295 14
105 -1 273 -33 358 -42 110 -81 177 -107 180 -18 3 -22 8 -18 28 6 32 -60 111
-168 198 -53 43 -94 66 -206 114 -118 51 -164 66 -264 87 -123 24 -115 19
-115 81 0 81 -26 119 -50 75z m480 -292 c0 -5 -7 -9 -15 -9 -15 0 -20 12 -9
23 8 8 24 -1 24 -14z"/>
<path d="M4355 2731 c-70 -21 -114 -45 -208 -115 -48 -36 -66 -55 -61 -66 16
-38 15 -62 -5 -95 -11 -20 -21 -43 -21 -51 0 -21 -29 -63 -53 -76 -18 -9 -24
-6 -43 17 l-22 28 -15 -24 c-9 -13 -19 -36 -22 -50 -5 -21 -3 -26 14 -25 11 1
19 -3 18 -9 -1 -5 -15 -9 -30 -7 -16 1 -26 -2 -23 -6 3 -5 -4 -32 -14 -61 -21
-54 -28 -191 -10 -191 17 0 60 23 60 32 0 15 42 -2 98 -40 88 -59 90 -77 27
-171 l-45 -68 32 -69 c20 -43 33 -87 34 -116 2 -49 12 -67 56 -107 l27 -24 21
24 c17 20 21 22 30 9 5 -8 10 -29 10 -46 0 -29 5 -34 61 -58 43 -20 64 -25 73
-17 7 6 33 8 63 4 45 -5 52 -3 57 15 5 14 13 18 26 15 11 -3 26 0 34 6 22 19
79 32 109 25 19 -4 32 -16 42 -40 12 -28 19 -34 45 -34 17 0 40 -4 50 -10 50
-27 277 90 305 157 13 30 13 37 -1 58 -22 34 -11 58 51 111 29 25 61 62 71 81
18 33 21 34 65 31 l47 -3 15 50 c41 129 49 268 22 379 -18 76 -24 81 -77 70
-52 -11 -58 -28 -29 -89 26 -56 26 -62 0 -75 -53 -29 -99 26 -99 116 0 50 -21
71 -83 81 -25 4 -44 14 -54 29 -8 13 -19 24 -24 24 -16 0 -9 -22 16 -52 33
-39 32 -63 -4 -99 -38 -38 -68 -37 -121 5 -55 43 -69 70 -70 128 0 38 -6 54
-29 80 -27 31 -32 32 -97 31 -38 -1 -87 -3 -109 -5 -39 -3 -41 -2 -64 45 -20
40 -27 47 -53 47 -21 0 -41 -11 -65 -35 -19 -19 -39 -35 -44 -35 -5 0 -9 -4
-9 -10 0 -20 -49 -10 -61 12 -10 19 -8 25 25 52 20 17 36 38 36 47 0 24 21 39
56 39 40 0 61 22 39 40 -22 18 -19 33 15 65 17 16 30 32 30 37 0 13 -50 8
-115 -11z m89 -317 c9 -8 16 -26 16 -39 0 -32 41 -41 80 -18 25 14 35 15 62 6
18 -7 52 -10 74 -6 58 8 84 -19 84 -85 0 -47 1 -49 77 -116 60 -51 82 -66 98
-61 11 4 35 9 53 12 40 6 42 -11 6 -51 -25 -26 -31 -28 -75 -22 -33 5 -60 2
-84 -8 -29 -13 -35 -20 -35 -46 0 -26 3 -30 19 -25 24 7 37 -11 20 -31 -9 -11
-9 -18 -1 -26 24 -24 14 -69 -25 -104 -20 -19 -39 -34 -43 -34 -3 0 -16 -18
-30 -40 -14 -23 -43 -49 -72 -65 -26 -14 -52 -35 -58 -45 -12 -22 -70 -43 -93
-34 -13 5 -17 19 -17 60 0 38 -7 69 -25 104 -30 60 -31 83 -4 154 11 31 18 60
15 65 -4 5 -23 15 -44 21 -20 7 -64 25 -98 41 l-61 29 -54 -18 c-60 -21 -66
-20 -117 14 -29 20 -35 31 -38 65 -7 72 10 109 90 192 70 73 77 77 118 77 31
0 51 7 73 25 35 28 67 32 89 9z m-414 -230 c0 -8 -4 -12 -10 -9 -5 3 -10 10
-10 16 0 5 5 9 10 9 6 0 10 -7 10 -16z m1118 -125 c-2 -6 -8 -10 -13 -10 -5 0
-11 4 -13 10 -2 6 4 11 13 11 9 0 15 -5 13 -11z m-175 -133 c15 -40 -32 -126
-68 -126 -29 0 -31 13 -9 66 27 66 64 94 77 60z m-763 -116 c0 -11 -7 -20 -15
-20 -18 0 -19 12 -3 28 16 16 18 15 18 -8z m214 -160 c-6 -6 -19 -8 -29 -4
-17 7 -17 8 1 21 21 15 45 0 28 -17z"/>
<path d="M14233 2714 c-8 -22 15 -43 27 -24 5 8 10 21 10 28 0 17 -30 15 -37
-4z"/>
<path d="M4489 2674 l-34 -37 35 7 c36 6 74 41 64 57 -10 17 -30 9 -65 -27z"/>
<path d="M13717 2681 c-4 -17 -3 -21 5 -13 5 5 8 16 6 23 -3 8 -7 3 -11 -10z"/>
<path d="M14186 2685 c4 -8 8 -15 10 -15 2 0 4 7 4 15 0 8 -4 15 -10 15 -5 0
-7 -7 -4 -15z"/>
<path d="M13795 2680 c-8 -13 -1 -24 14 -19 6 3 7 10 2 18 -6 10 -10 10 -16 1z"/>
<path d="M1925 2670 c-8 -13 6 -41 19 -37 17 6 19 34 2 40 -9 4 -18 2 -21 -3z"/>
<path d="M1990 2630 c0 -5 5 -10 10 -10 6 0 10 5 10 10 0 6 -4 10 -10 10 -5 0
-10 -4 -10 -10z"/>
<path d="M2377 2623 c-12 -11 -8 -23 8 -23 8 0 15 7 15 15 0 16 -12 20 -23 8z"/>
<path d="M14315 2610 c3 -5 10 -10 16 -10 5 0 9 5 9 10 0 6 -7 10 -16 10 -8 0
-12 -4 -9 -10z"/>
<path d="M1855 2550 c4 -6 11 -8 16 -5 14 9 11 15 -7 15 -8 0 -12 -5 -9 -10z"/>
<path d="M6360 2494 c-54 -20 -141 -67 -175 -94 -107 -86 -163 -255 -145 -437
27 -258 199 -390 484 -369 80 5 215 40 252 64 11 6 19 221 15 377 l-1 50 -178
0 -177 0 -3 -29 c-2 -16 -1 -44 3 -63 l6 -33 99 0 c98 0 100 0 106 -25 7 -30
2 -181 -8 -190 -3 -3 -35 -13 -69 -21 -153 -37 -294 23 -350 148 -21 46 -24
68 -24 163 0 103 2 114 32 175 33 68 76 115 134 146 27 15 57 18 149 18 104 0
120 -2 169 -26 30 -15 58 -25 63 -22 7 4 48 90 48 101 0 2 -30 18 -67 36 -65
31 -73 32 -208 34 -77 1 -147 0 -155 -3z"/>
<path d="M11359 2488 c0 -2 -3 -202 -6 -445 l-6 -442 25 -6 c13 -3 47 -5 74
-3 l49 3 5 215 c4 173 8 219 21 237 62 88 190 105 234 31 18 -29 21 -57 25
-253 l5 -220 66 -3 66 -3 6 178 c9 265 -7 349 -79 412 -48 42 -73 51 -147 51
-68 0 -129 -23 -161 -59 -11 -11 -23 -21 -28 -21 -4 0 -8 74 -8 165 l0 165
-70 0 c-38 0 -70 -1 -71 -2z"/>
<path d="M14175 2459 c-11 -16 -1 -19 13 -3 7 8 8 14 3 14 -5 0 -13 -5 -16
-11z"/>
<path d="M2002 2396 c7 -8 15 -12 17 -11 5 6 -10 25 -20 25 -5 0 -4 -6 3 -14z"/>
<path d="M14268 2383 c-22 -6 -33 -40 -18 -58 7 -8 25 -15 41 -15 15 0 30 -4
33 -9 4 -5 30 -12 59 -16 28 -4 57 -11 62 -15 6 -4 52 -10 104 -14 52 -3 99
-10 106 -16 7 -5 33 -13 59 -16 25 -4 46 -10 46 -14 0 -4 35 -11 78 -15 42 -4
82 -11 88 -16 6 -5 46 -12 88 -15 42 -4 79 -11 82 -15 7 -12 331 -12 338 0 3
4 25 11 49 14 24 4 57 13 73 21 135 67 147 71 234 71 67 0 91 -4 113 -19 44
-30 68 -72 74 -131 3 -30 10 -55 14 -55 15 0 11 -215 -5 -245 -20 -38 -60 -56
-136 -62 -59 -5 -71 -2 -128 27 -34 18 -62 37 -62 42 0 4 -5 8 -10 8 -12 0
-71 40 -82 55 -10 14 -483 12 -500 -2 -7 -6 -49 -13 -93 -17 -44 -4 -84 -11
-90 -16 -5 -4 -52 -11 -103 -15 -50 -4 -95 -11 -98 -16 -3 -5 -20 -9 -38 -9
-17 0 -36 -4 -41 -9 -6 -5 -50 -13 -100 -16 -49 -4 -99 -10 -110 -15 -11 -5
-41 -11 -67 -15 -42 -5 -48 -9 -48 -30 0 -49 5 -52 83 -43 40 5 80 13 89 18
10 6 38 10 62 10 25 0 47 4 50 9 3 5 43 12 88 16 46 4 88 11 94 16 6 5 40 12
75 15 35 4 69 10 74 14 6 4 57 11 115 15 58 4 111 12 118 18 7 6 87 10 200 11
161 1 192 -2 225 -17 20 -10 37 -21 37 -25 0 -4 9 -12 20 -17 10 -6 41 -21 67
-34 26 -14 51 -29 55 -35 4 -7 44 -11 96 -11 74 0 96 4 136 25 26 13 61 40 77
59 l29 36 0 147 c0 81 -4 149 -9 152 -5 4 -12 29 -16 56 -4 28 -11 50 -16 50
-5 0 -9 6 -9 13 0 18 -57 68 -104 92 -33 17 -58 20 -150 19 -71 -1 -112 -6
-114 -13 -2 -6 -9 -11 -17 -11 -7 0 -18 -6 -24 -14 -7 -8 -27 -17 -46 -20 -19
-4 -35 -11 -35 -15 0 -5 -22 -11 -50 -15 -27 -4 -52 -11 -55 -16 -8 -12 -252
-13 -259 -1 -3 4 -48 10 -101 13 -52 3 -100 10 -108 16 -7 6 -48 14 -92 18
-44 4 -85 10 -90 15 -6 4 -31 11 -55 15 -25 4 -49 10 -55 14 -5 5 -55 11 -110
15 -55 4 -104 11 -110 15 -5 4 -36 10 -67 12 -32 3 -66 11 -75 20 -10 8 -26
13 -35 11z"/>
<path d="M13975 2371 c-6 -11 9 -23 19 -14 9 9 7 23 -3 23 -6 0 -12 -4 -16 -9z"/>
<path d="M1902 2319 c2 -11 -21 -17 -92 -24 -52 -6 -102 -14 -110 -17 -8 -4
-51 -9 -95 -13 -44 -3 -84 -10 -90 -15 -5 -4 -36 -11 -67 -15 -32 -4 -58 -11
-58 -15 0 -4 -39 -10 -87 -14 -48 -4 -90 -12 -94 -17 -3 -6 -72 -13 -152 -16
-81 -3 -147 -10 -147 -15 0 -11 -107 -10 -114 1 -4 5 -30 12 -59 16 -28 4 -56
11 -62 15 -5 4 -23 10 -40 14 -16 4 -32 11 -35 14 -12 16 -100 52 -127 52 -16
0 -35 6 -42 13 -11 10 -14 10 -18 0 -3 -8 -23 -13 -49 -13 -46 0 -134 -33
-134 -50 0 -6 -6 -10 -14 -10 -20 0 -65 -73 -72 -120 -4 -22 -11 -43 -15 -46
-13 -8 -11 -314 1 -314 6 0 10 -6 10 -14 0 -21 68 -76 95 -76 13 0 25 -5 27
-12 6 -16 150 -17 169 -2 8 7 29 15 47 19 17 3 32 10 32 15 0 4 8 10 18 14 19
6 41 19 92 56 35 25 36 25 252 24 136 0 222 -5 230 -11 7 -6 59 -14 116 -18
56 -4 105 -11 108 -16 3 -5 20 -9 39 -9 19 0 36 -4 39 -9 4 -5 41 -12 84 -16
42 -4 82 -11 87 -16 6 -4 52 -11 103 -15 51 -4 92 -11 92 -15 0 -5 12 -9 28
-9 15 0 43 -4 62 -10 39 -11 50 -2 50 41 0 28 -15 39 -55 39 -13 0 -26 4 -29
9 -3 4 -49 11 -103 15 -53 4 -102 11 -108 16 -6 5 -45 12 -88 16 -42 4 -77 10
-77 14 0 4 -39 10 -87 14 -49 3 -89 11 -91 16 -2 6 -28 10 -58 10 -30 0 -54 4
-54 8 0 12 -101 17 -337 17 l-201 0 -24 -25 c-23 -24 -43 -37 -118 -77 -19
-10 -38 -22 -42 -27 -12 -17 -131 -12 -173 8 -69 32 -75 46 -75 179 0 64 4
117 9 117 4 0 11 26 14 57 5 49 11 62 46 97 40 40 41 40 130 44 69 3 96 1 114
-10 12 -9 37 -19 55 -22 17 -4 32 -12 32 -17 0 -5 10 -9 23 -9 12 0 31 -6 42
-14 11 -7 44 -17 72 -21 29 -4 55 -11 59 -16 7 -12 221 -12 228 0 3 4 50 10
105 13 55 3 106 10 113 15 7 6 48 14 90 18 43 4 80 10 83 15 3 4 26 11 52 15
27 4 51 11 54 16 3 6 46 12 95 16 49 3 94 9 99 13 6 4 39 11 75 15 35 4 71 11
80 16 8 5 31 12 50 17 28 7 36 14 38 35 2 15 -1 27 -7 27 -5 0 -17 3 -26 6
-10 4 -15 2 -13 -7z"/>
<path d="M2192 2309 c2 -6 8 -10 13 -10 5 0 11 4 13 10 2 6 -4 11 -13 11 -9 0
-15 -5 -13 -11z"/>
<path d="M12000 2256 c0 -8 23 -65 51 -127 28 -63 80 -181 115 -262 35 -82 78
-179 95 -215 38 -81 39 -118 5 -177 -29 -49 -73 -86 -129 -110 -20 -8 -37 -20
-37 -25 0 -21 53 -90 69 -90 9 0 39 11 66 24 74 35 163 135 199 226 10 25 27
65 37 89 21 46 89 249 106 316 10 37 85 252 112 318 18 46 16 48 -66 45 l-78
-3 -27 -85 c-15 -47 -43 -137 -63 -200 -58 -192 -68 -220 -76 -220 -5 0 -15
15 -23 33 -35 77 -56 126 -56 131 0 3 -13 34 -28 68 -16 35 -49 111 -73 170
l-44 108 -77 0 c-60 0 -78 -3 -78 -14z"/>
<path d="M9535 2241 c-22 -10 -50 -31 -63 -45 -27 -32 -42 -26 -42 15 l0 29
-73 0 -73 0 4 -102 c2 -57 6 -200 10 -318 l7 -215 24 -3 c13 -2 44 -1 69 3
l44 7 -7 167 c-10 247 12 313 116 341 22 6 55 8 74 4 l35 -6 0 59 c0 33 -5 64
-12 71 -17 17 -66 14 -113 -7z"/>
<path d="M7178 2239 c-58 -17 -109 -69 -153 -155 -39 -77 -40 -81 -39 -179 0
-88 3 -106 26 -151 32 -61 93 -118 156 -146 38 -17 67 -21 152 -21 90 0 114 4
169 27 36 14 68 31 72 37 8 14 -21 99 -34 99 -5 0 -28 -12 -53 -26 -113 -66
-278 -29 -320 73 -12 28 -19 79 -11 85 1 1 99 4 217 7 l215 6 -1 40 c-2 84
-15 134 -54 194 -53 81 -112 112 -225 117 -44 2 -96 -1 -117 -7z m191 -115
c32 -19 66 -68 75 -106 l6 -28 -108 0 c-60 0 -130 -3 -156 -6 -55 -8 -59 3
-25 73 35 73 140 107 208 67z"/>
<path d="M7945 2224 c-94 -30 -178 -116 -204 -209 -6 -21 -9 -79 -8 -129 3
-106 30 -170 93 -225 63 -56 117 -74 219 -74 159 -1 239 40 296 153 28 56 37
175 19 252 -29 121 -73 183 -158 219 -64 28 -189 34 -257 13z m202 -130 c44
-33 65 -86 70 -177 5 -70 2 -91 -15 -130 -35 -80 -110 -109 -201 -80 -39 13
-63 29 -85 56 -29 36 -31 45 -34 132 -3 70 0 99 12 121 23 42 51 72 83 90 39
21 135 14 170 -12z"/>
<path d="M8675 2219 c-61 -33 -74 -44 -104 -85 -56 -77 -76 -212 -47 -321 19
-72 66 -133 133 -174 53 -31 64 -34 138 -34 72 0 84 3 123 29 54 37 67 27 57
-40 -9 -60 -53 -107 -114 -124 -43 -11 -166 -9 -206 3 -65 20 -64 20 -70 -9
-3 -16 -9 -41 -14 -55 -7 -23 -5 -29 15 -38 45 -20 158 -34 243 -29 131 8 198
48 250 151 l33 65 1 339 c0 186 -3 337 -7 336 -3 -2 -33 -3 -66 -3 -53 0 -60
-2 -60 -19 0 -33 -18 -34 -57 -4 -32 25 -46 28 -122 31 -73 3 -92 0 -126 -19z
m205 -95 c113 -45 131 -321 24 -390 -57 -38 -151 -27 -196 22 -29 33 -51 131
-44 196 9 94 46 150 113 173 49 18 55 18 103 -1z"/>
<path d="M9922 2209 c-108 -54 -162 -147 -170 -294 -3 -73 0 -99 15 -138 37
-93 127 -160 246 -182 55 -11 127 11 172 50 21 19 40 33 42 31 5 -4 11 -33 12
-53 1 -9 22 -13 71 -13 l70 0 1 163 c0 89 1 227 1 307 l1 145 -71 3 c-66 3
-72 1 -72 -17 0 -23 -16 -36 -25 -21 -17 28 -86 50 -158 50 -62 0 -83 -5 -135
-31z m238 -101 c65 -45 75 -68 75 -181 0 -81 -4 -110 -19 -141 -50 -101 -228
-100 -296 1 -22 32 -25 47 -25 128 0 83 2 95 28 134 39 59 80 81 148 81 42 0
65 -6 89 -22z"/>
<path d="M10865 2229 c-22 -5 -57 -23 -77 -39 -45 -36 -58 -38 -58 -6 0 30
-16 36 -91 36 l-59 0 -2 -152 c-2 -243 2 -567 8 -645 l6 -73 64 0 64 0 0 155
c0 85 3 155 6 155 3 0 20 -11 37 -24 46 -35 139 -59 193 -51 94 14 187 108
220 223 21 72 15 200 -13 263 -57 128 -173 189 -298 158z m72 -120 c40 -15 81
-57 94 -98 21 -62 15 -163 -12 -217 -35 -70 -67 -89 -144 -89 -59 0 -67 3 -98
33 -20 20 -40 54 -50 86 -20 62 -21 78 -6 147 12 53 63 123 104 139 29 12 79
12 112 -1z"/>
<path d="M14045 2080 c3 -5 13 -10 21 -10 8 0 14 5 14 10 0 6 -9 10 -21 10
-11 0 -17 -4 -14 -10z"/>
<path d="M2115 2030 c-8 -13 15 -24 27 -12 6 6 4 11 -6 15 -8 3 -18 2 -21 -3z"/>
<path d="M13800 1651 c0 -5 5 -13 10 -16 6 -3 10 -2 10 4 0 5 -4 13 -10 16 -5
3 -10 2 -10 -4z"/>
<path d="M2370 1584 c0 -8 5 -12 10 -9 6 3 10 10 10 16 0 5 -4 9 -10 9 -5 0
-10 -7 -10 -16z"/>
<path d="M14080 1570 c0 -11 7 -20 15 -20 8 0 15 9 15 20 0 11 -7 20 -15 20
-8 0 -15 -9 -15 -20z"/>
<path d="M2080 1520 c0 -13 7 -20 20 -20 18 0 19 3 10 20 -6 11 -15 20 -20 20
-6 0 -10 -9 -10 -20z"/>
<path d="M13586 1501 c-3 -5 1 -12 10 -15 20 -8 29 -1 19 13 -8 13 -22 14 -29
2z"/>
<path d="M14341 1444 c0 -11 3 -14 6 -6 3 7 2 16 -1 19 -3 4 -6 -2 -5 -13z"/>
<path d="M2578 1438 c9 -9 15 -9 24 0 9 9 7 12 -12 12 -19 0 -21 -3 -12 -12z"/>
<path d="M13805 1297 c-8 -31 -4 -59 10 -64 11 -3 14 71 3 82 -4 4 -10 -4 -13
-18z"/>
<path d="M13840 1276 c0 -2 7 -6 15 -10 8 -3 15 -1 15 4 0 6 -7 10 -15 10 -8
0 -15 -2 -15 -4z"/>
<path d="M2364 1215 c0 -25 5 -43 11 -42 14 5 13 79 -1 84 -8 3 -11 -12 -10
-42z"/>
<path d="M2328 1213 c7 -3 16 -2 19 1 4 3 -2 6 -13 5 -11 0 -14 -3 -6 -6z"/>
</g>
</svg>
